<?xml version="1.0" standalone="no"?>
<!DOCTYPE svg PUBLIC "-//W3C//DTD SVG 20010904//EN"
 "http://www.w3.org/TR/2001/REC-SVG-20010904/DTD/svg10.dtd">
<svg version="1.0" xmlns="http://www.w3.org/2000/svg"
 width="1500.000000pt" height="1500.000000pt" viewBox="0 0 1500.000000 1500.000000"
 preserveAspectRatio="xMidYMid meet">
<metadata>
Created by potrace 1.11, written by Peter Selinger 2001-2013
</metadata>
<g transform="translate(0.000000,1500.000000) scale(0.100000,-0.100000)"
fill="#000000" stroke="none">
<path d="M7878 13408 c-28 -29 -98 -112 -156 -183 -258 -315 -405 -485 -426
-490 -11 -3 -55 -1 -96 5 -212 28 -298 32 -670 27 -212 -3 -470 -11 -575 -17
-104 -6 -246 -10 -314 -10 -145 1 -183 -12 -250 -85 l-41 -45 0 -83 0 -84 93
-149 c51 -82 109 -183 129 -224 20 -41 63 -115 97 -164 33 -50 61 -93 61 -98
0 -4 -8 -8 -18 -8 -10 0 -40 -14 -67 -31 -27 -17 -98 -46 -159 -65 -61 -18
-128 -47 -151 -62 -53 -39 -105 -64 -195 -96 -41 -15 -88 -40 -105 -55 -16
-15 -135 -80 -264 -145 -129 -64 -246 -125 -260 -135 -14 -10 -114 -64 -221
-121 -281 -148 -329 -177 -382 -228 l-48 -46 0 -77 c0 -62 4 -81 20 -102 l21
-26 -28 -6 c-164 -36 -528 -219 -700 -353 -27 -21 -91 -64 -143 -96 -168 -104
-193 -123 -317 -244 l-123 -119 0 -101 c0 -66 5 -115 15 -139 8 -21 28 -89 45
-151 17 -62 39 -130 49 -150 10 -20 31 -75 46 -122 41 -126 207 -460 263 -528
25 -31 67 -88 93 -127 98 -148 428 -462 586 -558 36 -22 79 -61 111 -102 73
-90 99 -105 190 -105 l73 0 52 49 52 49 3 75 c4 66 1 82 -21 124 -31 58 -100
360 -119 522 -2 19 3 26 22 32 38 11 133 10 234 -2 283 -34 309 -39 355 -65
25 -15 48 -28 50 -30 2 -2 -15 -24 -38 -49 -23 -25 -55 -74 -70 -108 -15 -34
-64 -109 -107 -165 -118 -155 -114 -146 -114 -237 l0 -79 42 -43 c42 -43 43
-43 114 -43 71 0 76 2 220 78 82 42 198 100 259 128 l110 51 33 -61 c17 -33
39 -77 47 -96 8 -19 27 -58 41 -86 15 -28 25 -56 23 -63 -2 -6 -83 -81 -179
-165 l-174 -154 -289 144 -288 144 -91 0 -91 0 -42 -42 -42 -43 -7 -152 c-4
-83 -4 -173 -1 -200 28 -205 60 -306 148 -460 135 -239 201 -343 254 -404 32
-36 76 -91 98 -123 60 -84 342 -348 414 -386 33 -18 92 -61 131 -96 l71 -64
76 0 c77 0 77 0 120 42 l43 42 0 96 c0 159 52 310 182 529 78 131 201 297 262
353 17 16 46 33 66 39 19 7 53 25 75 41 l40 29 6 -78 c4 -43 12 -114 19 -158
16 -104 7 -231 -20 -292 -64 -145 -227 -324 -435 -477 -49 -37 -131 -98 -181
-136 -50 -38 -118 -87 -151 -109 -33 -21 -101 -77 -149 -123 -49 -46 -121
-109 -160 -140 -39 -31 -90 -80 -114 -110 -24 -29 -78 -89 -121 -133 -42 -44
-103 -120 -135 -170 -31 -49 -73 -110 -94 -135 -42 -51 -43 -53 -140 -255 -39
-82 -78 -162 -85 -176 -8 -14 -21 -58 -29 -97 -8 -40 -34 -118 -56 -175 -37
-92 -41 -109 -38 -171 4 -66 5 -69 50 -112 47 -44 47 -44 120 -44 65 0 81 4
153 40 158 78 312 142 405 167 254 68 623 143 636 130 4 -3 5 -28 3 -54 -2
-26 -4 -151 -4 -278 0 -219 2 -235 28 -337 15 -59 42 -140 58 -180 17 -40 35
-89 41 -108 5 -19 22 -62 38 -95 15 -33 45 -109 64 -168 20 -60 45 -125 55
-146 11 -20 35 -82 54 -136 55 -155 143 -328 222 -434 39 -53 88 -123 109
-156 21 -33 64 -87 95 -120 32 -33 90 -105 131 -160 131 -179 153 -206 195
-241 40 -33 45 -34 126 -34 l85 0 41 43 c24 25 46 62 56 92 116 368 141 444
157 471 9 17 27 57 39 90 12 32 48 103 79 158 l57 98 5 -65 c5 -60 8 -70 45
-107 l39 -40 88 0 88 0 43 38 c61 56 122 95 221 142 49 23 105 57 125 75 20
17 56 45 81 60 25 16 77 58 115 95 39 37 128 107 199 156 88 61 150 112 195
163 36 40 112 119 169 174 152 149 304 355 332 453 l13 42 31 -13 c38 -16 247
-55 296 -55 19 0 71 -9 115 -20 44 -11 105 -20 135 -20 30 0 152 -11 270 -25
117 -14 247 -25 287 -25 l74 0 49 46 50 47 0 78 0 77 -46 54 c-37 42 -144 231
-144 253 0 11 152 4 213 -10 141 -33 837 -52 889 -24 14 8 66 11 150 10 l128
-2 50 47 50 47 0 79 0 79 -49 52 c-27 29 -82 106 -122 172 -39 66 -91 147
-114 180 -24 33 -56 87 -73 121 -17 33 -50 84 -75 112 -37 44 -218 380 -217
405 0 10 -93 254 -125 328 -14 31 -29 92 -34 140 -6 46 -17 108 -26 137 -9 29
-15 58 -13 63 2 6 49 -28 105 -75 56 -46 137 -108 180 -137 43 -28 108 -81
145 -115 l66 -64 82 0 83 0 47 48 48 47 8 100 c5 55 8 359 7 675 -1 527 -3
588 -23 730 -22 158 -34 280 -46 450 -4 62 -23 164 -55 290 -27 107 -53 227
-59 267 -5 39 -19 95 -31 124 -11 29 -29 99 -39 154 -17 96 -140 528 -162 569
-9 17 -8 18 13 11 13 -4 66 -10 118 -12 l93 -5 49 48 49 48 0 95 c0 77 -6 117
-34 215 -19 67 -37 142 -41 168 -7 55 -60 215 -99 303 -15 33 -47 124 -72 203
-48 154 -62 188 -118 271 -20 29 -36 58 -36 63 0 6 -30 76 -66 157 -45 101
-77 158 -104 186 -21 22 -60 72 -87 110 -58 85 -174 231 -262 329 -35 39 -83
101 -107 137 -24 37 -78 98 -120 135 -42 38 -144 137 -227 220 -84 84 -168
159 -187 169 -19 10 -57 34 -85 54 -205 152 -422 291 -602 385 -95 51 -90 44
-216 254 -51 84 -146 221 -206 297 -73 93 -291 315 -366 373 -72 55 -171 138
-242 204 l-52 48 -82 0 -82 0 -49 -52z m314 -61 c57 -50 139 -120 183 -154
127 -98 388 -383 457 -499 10 -16 41 -64 70 -106 51 -75 116 -176 158 -245 14
-23 45 -45 107 -77 163 -82 372 -216 600 -383 47 -35 90 -63 96 -63 6 0 77
-66 158 -147 80 -82 180 -176 221 -210 49 -40 92 -86 123 -135 27 -40 74 -100
105 -133 83 -87 237 -281 273 -344 16 -29 54 -79 83 -110 52 -57 94 -139 164
-318 15 -40 40 -87 54 -104 43 -50 71 -114 115 -260 22 -75 55 -167 72 -205
41 -90 85 -231 104 -332 8 -43 26 -117 40 -162 19 -64 25 -106 25 -181 l0 -97
-40 -36 c-39 -35 -42 -36 -120 -36 -56 0 -96 6 -132 20 -29 11 -54 20 -55 20
-2 0 8 -24 22 -52 39 -85 141 -438 170 -591 8 -45 26 -109 39 -142 13 -33 27
-89 31 -125 4 -36 29 -155 55 -265 39 -162 50 -230 59 -360 7 -88 16 -188 22
-222 32 -209 40 -321 46 -708 3 -225 2 -527 -2 -669 l-7 -259 -46 -49 -45 -48
-82 0 -83 0 -53 58 c-30 31 -93 83 -140 114 -47 32 -108 77 -135 101 -27 24
-82 69 -123 102 l-74 58 7 -47 c4 -26 14 -66 22 -88 7 -21 18 -78 24 -126 6
-48 20 -107 31 -132 22 -48 73 -184 120 -319 15 -46 33 -89 38 -95 5 -6 41
-73 80 -149 39 -76 89 -160 110 -187 21 -27 55 -79 76 -117 21 -37 70 -117
110 -178 39 -60 85 -134 100 -163 16 -29 55 -82 87 -117 l58 -63 0 -69 c0 -68
-1 -69 -43 -111 l-43 -42 -126 0 c-70 0 -139 -5 -153 -10 -68 -26 -759 -6
-878 25 -54 14 -247 22 -247 10 0 -22 126 -250 159 -287 40 -45 41 -48 41
-120 0 -71 -1 -75 -35 -108 -30 -29 -43 -34 -93 -38 -69 -5 -601 49 -762 77
-30 5 -107 17 -170 27 -63 9 -142 25 -174 35 -64 19 -76 18 -76 -10 0 -31 -67
-152 -134 -242 -35 -48 -151 -177 -256 -287 -164 -171 -210 -213 -306 -277
-62 -42 -146 -109 -186 -149 -40 -40 -95 -85 -123 -101 -27 -16 -67 -44 -89
-63 -21 -19 -75 -51 -120 -72 -92 -42 -186 -103 -230 -149 -28 -30 -33 -31
-111 -31 -81 0 -81 0 -119 39 l-38 38 5 84 c2 46 11 104 21 128 26 68 12 73
-19 6 -16 -33 -59 -113 -97 -177 -38 -64 -78 -143 -88 -174 -11 -32 -29 -73
-40 -91 -19 -33 -122 -345 -136 -413 -11 -54 -35 -102 -73 -142 -35 -37 -36
-38 -111 -38 -69 0 -78 3 -112 30 -20 16 -62 65 -94 107 -143 194 -180 242
-229 293 -29 30 -72 84 -96 120 -23 36 -73 106 -110 155 -72 98 -158 268 -221
440 -22 61 -48 126 -58 145 -9 19 -36 91 -60 160 -23 69 -51 137 -61 151 -10
14 -23 46 -28 70 -6 24 -22 71 -36 103 -14 32 -40 106 -56 164 -30 101 -32
120 -36 320 -4 139 -2 233 6 270 6 32 8 73 5 91 l-7 33 -61 -6 c-34 -4 -99
-15 -146 -26 -47 -10 -141 -31 -210 -46 -69 -15 -163 -37 -210 -50 -46 -13
-94 -24 -106 -24 -13 0 -25 -4 -28 -9 -4 -5 -57 -30 -119 -56 -61 -26 -146
-65 -188 -86 -66 -34 -84 -39 -144 -39 -67 0 -68 1 -111 44 -43 42 -44 45 -44
107 0 47 7 78 25 117 30 64 75 205 75 234 0 12 35 94 79 182 43 89 86 182 95
208 9 25 34 66 56 90 21 25 67 87 101 139 34 52 96 130 138 174 42 45 100 109
129 143 30 35 79 81 110 104 32 23 100 82 152 133 52 50 124 111 160 135 36
24 108 76 160 115 52 39 138 103 190 142 120 89 295 260 345 337 76 117 93
162 100 260 4 54 2 125 -6 176 -6 47 -14 124 -16 173 -2 48 -8 87 -12 87 -4 0
-23 -12 -42 -26 -19 -14 -61 -38 -94 -54 -90 -41 -208 -178 -331 -384 -88
-147 -106 -184 -149 -307 -33 -91 -38 -119 -42 -219 l-5 -115 -36 -37 c-35
-37 -39 -38 -104 -38 l-67 0 -67 60 c-37 32 -102 79 -143 103 -56 33 -118 86
-232 198 -86 85 -174 179 -194 209 -21 30 -58 78 -83 105 -79 90 -273 422
-325 555 -13 36 -35 123 -47 193 -19 106 -22 154 -18 278 l4 149 39 40 39 40
89 0 88 0 288 -147 288 -147 158 139 c87 77 173 154 192 170 l33 30 -34 70
c-94 192 -116 239 -116 252 0 7 -4 13 -8 13 -17 0 -255 -111 -396 -184 -136
-71 -150 -76 -208 -76 -58 0 -65 2 -100 37 -37 37 -38 38 -38 114 0 84 -10 64
115 224 31 39 72 104 92 145 22 47 56 96 91 132 l56 57 -75 35 c-94 45 -257
68 -484 70 l-160 1 3 -80 c2 -47 17 -137 37 -220 18 -77 39 -165 45 -195 6
-30 19 -69 30 -85 15 -23 20 -47 20 -104 l0 -74 -44 -43 -43 -44 -80 0 -80 0
-49 53 c-27 28 -63 68 -79 88 -17 20 -52 49 -80 64 -164 94 -480 397 -588 566
-19 31 -56 80 -82 110 -55 63 -216 386 -260 519 -15 47 -36 101 -46 121 -10
19 -31 87 -48 150 -17 64 -37 132 -46 152 -10 24 -15 69 -15 135 l0 99 135
128 c93 87 170 149 243 195 59 38 127 82 152 98 262 175 429 271 525 302 22 7
67 26 100 42 33 15 69 28 80 28 11 0 37 5 59 11 l38 11 -31 32 c-29 30 -31 37
-31 102 l0 70 48 46 c53 51 110 85 367 218 99 51 198 105 221 121 22 15 142
78 265 140 123 62 238 125 254 140 17 16 81 48 145 73 63 25 132 58 155 74 22
16 92 45 156 65 64 20 128 46 143 58 15 12 48 30 74 40 26 10 46 21 45 26 -3
13 -102 161 -113 168 -5 3 -34 56 -64 118 -30 62 -89 166 -130 232 l-76 120 0
81 0 81 54 52 c30 28 56 52 58 53 2 0 80 4 173 8 94 4 283 13 420 20 285 14
870 13 984 -1 128 -16 228 -22 253 -16 16 4 85 79 194 208 253 301 333 399
339 419 3 10 24 35 45 54 39 35 42 36 120 36 l79 0 103 -93z"/>
<path d="M7954 13333 c-14 -16 -48 -56 -77 -90 -29 -34 -92 -109 -142 -166
-49 -57 -151 -176 -225 -265 -74 -88 -144 -164 -155 -168 -33 -12 -215 -4
-290 12 -100 22 -578 31 -800 14 -192 -14 -272 -17 -532 -24 -157 -4 -187 -8
-222 -25 -73 -38 -91 -98 -48 -162 38 -57 173 -272 194 -310 11 -20 26 -53 33
-75 7 -21 22 -50 35 -64 12 -14 48 -65 79 -113 l58 -89 -17 -38 c-15 -34 -27
-43 -84 -65 -36 -15 -73 -33 -81 -40 -15 -12 -133 -53 -216 -74 -23 -6 -59
-25 -80 -42 -50 -39 -131 -80 -215 -108 -37 -12 -77 -33 -90 -47 -13 -14 -100
-63 -194 -109 -93 -45 -201 -102 -240 -125 -38 -24 -182 -104 -320 -178 -388
-209 -365 -193 -365 -248 0 -26 8 -40 40 -65 34 -28 87 -98 78 -103 -8 -5
-178 -66 -208 -75 -53 -15 -216 -83 -298 -125 -100 -51 -302 -176 -366 -229
-30 -24 -98 -70 -152 -102 -146 -86 -160 -96 -267 -200 -94 -92 -97 -97 -97
-140 0 -24 5 -56 10 -71 6 -15 24 -77 39 -138 16 -61 39 -133 51 -161 12 -27
39 -99 61 -159 21 -60 65 -159 97 -220 32 -61 68 -136 80 -166 13 -31 43 -80
67 -110 25 -30 69 -92 99 -136 100 -150 395 -429 558 -526 48 -29 81 -58 118
-108 70 -91 112 -110 163 -70 38 30 42 63 13 123 -23 47 -39 113 -107 445 -36
179 -22 244 56 262 54 13 241 12 345 -1 294 -36 295 -36 382 -84 110 -60 132
-79 124 -108 -3 -12 -35 -51 -72 -86 -46 -45 -74 -82 -94 -125 -23 -53 -91
-150 -191 -276 -37 -47 -45 -84 -25 -115 22 -34 73 -33 129 2 53 33 459 236
526 263 58 23 59 22 89 -72 12 -36 35 -88 52 -114 16 -26 30 -52 30 -57 0 -5
20 -49 45 -99 25 -50 45 -99 45 -109 0 -10 -39 -54 -87 -97 -201 -183 -375
-332 -388 -332 -8 0 -156 71 -330 157 -418 208 -417 208 -428 -4 -11 -231 40
-416 174 -638 31 -50 82 -137 114 -195 32 -58 82 -130 110 -160 28 -30 72 -85
97 -121 26 -36 66 -81 90 -101 24 -20 78 -71 121 -115 43 -44 101 -93 130
-108 74 -40 147 -94 181 -133 39 -46 69 -56 107 -37 16 9 29 21 30 28 0 6 2
62 3 122 2 97 7 123 40 223 49 145 182 371 313 534 109 136 137 161 211 194
29 13 71 37 92 54 49 39 119 70 139 62 27 -10 31 -24 31 -112 0 -47 7 -137 16
-200 10 -73 15 -161 12 -240 -3 -116 -5 -129 -34 -186 -65 -129 -190 -284
-289 -360 -28 -21 -66 -53 -85 -71 -19 -19 -73 -62 -119 -96 -45 -34 -119 -91
-163 -126 -45 -34 -111 -82 -147 -105 -36 -24 -118 -90 -181 -147 -63 -58
-130 -115 -148 -128 -18 -13 -50 -46 -71 -74 -21 -29 -66 -79 -101 -112 -34
-33 -95 -110 -135 -170 -40 -61 -91 -136 -114 -165 -22 -30 -49 -75 -58 -100
-9 -25 -31 -70 -49 -100 -53 -92 -121 -252 -132 -313 -6 -31 -27 -97 -47 -145
-51 -120 -53 -135 -22 -166 33 -33 61 -33 123 0 27 15 96 47 154 71 58 25 128
56 155 69 48 22 275 82 535 140 157 35 339 45 359 20 28 -33 32 -106 15 -250
-14 -119 -15 -156 -5 -253 16 -149 51 -291 101 -408 22 -52 40 -98 40 -103 0
-5 13 -38 29 -73 16 -35 43 -109 61 -164 18 -55 43 -120 56 -146 12 -25 38
-90 57 -145 52 -147 149 -338 218 -429 34 -44 81 -111 106 -150 25 -38 67 -92
93 -120 27 -27 87 -102 134 -165 137 -185 159 -211 188 -226 60 -31 93 -10
120 76 105 335 144 451 163 485 13 22 28 58 35 80 13 41 69 149 101 196 10 14
69 127 132 251 129 254 169 318 197 318 29 0 26 -55 -9 -181 -16 -57 -34 -152
-39 -210 -6 -58 -18 -129 -28 -157 -22 -61 -13 -100 28 -120 34 -16 70 -3 118
42 51 49 115 89 214 136 49 23 105 56 125 74 20 18 57 47 82 64 26 17 78 60
117 96 38 35 121 99 183 142 63 43 137 103 164 133 28 30 105 109 172 176 175
173 274 308 324 443 46 122 72 145 127 106 41 -28 132 -53 275 -74 78 -11 171
-27 207 -35 36 -8 88 -15 115 -15 28 0 147 -11 265 -25 277 -32 293 -32 319 1
31 39 26 60 -25 112 -32 32 -65 85 -109 177 -65 134 -89 210 -73 238 13 24
241 21 373 -5 70 -14 153 -21 275 -23 96 -2 197 -9 224 -16 64 -16 267 -6 320
16 31 13 57 15 142 9 124 -8 160 2 173 50 10 37 0 60 -35 83 -27 17 -52 53
-156 225 -34 57 -74 119 -89 138 -15 19 -44 67 -64 105 -42 77 -77 129 -111
161 -32 31 -162 291 -200 399 -17 50 -41 112 -52 138 -12 27 -22 54 -22 61 0
7 -14 40 -31 72 -22 42 -33 82 -39 138 -5 43 -23 135 -41 205 -37 149 -44 270
-17 297 16 16 20 14 75 -32 32 -28 78 -65 103 -84 25 -18 74 -59 110 -90 36
-32 110 -87 165 -124 55 -37 123 -92 151 -122 58 -63 98 -71 138 -31 33 33 39
130 40 652 1 462 -4 638 -23 770 -21 150 -42 350 -46 450 -4 97 -10 126 -94
449 -12 44 -21 92 -21 108 0 17 -13 69 -29 116 -16 48 -35 118 -41 157 -15 93
-41 196 -85 335 -20 63 -43 138 -50 166 -8 28 -26 76 -39 105 -29 64 -51 161
-43 184 8 21 46 14 181 -32 105 -35 136 -39 166 -23 45 24 41 119 -13 275 -13
39 -27 97 -32 130 -7 58 -51 191 -114 345 -17 41 -48 134 -70 205 -29 95 -52
147 -84 195 -24 36 -51 85 -59 110 -46 129 -131 294 -178 348 -28 31 -74 89
-102 129 -45 60 -203 260 -291 368 -14 17 -35 48 -48 70 -31 55 -72 98 -150
156 -36 27 -79 68 -95 91 -16 23 -47 54 -69 70 -22 16 -55 48 -73 71 -31 38
-57 60 -138 110 -16 9 -69 46 -119 82 -171 123 -339 231 -455 293 -176 93
-195 109 -252 195 -29 45 -63 102 -75 127 -27 54 -160 246 -235 338 -117 145
-286 303 -434 408 -24 17 -70 56 -103 87 -71 68 -106 75 -147 30z m-4272
-4645 c19 -16 35 -103 42 -225 6 -91 5 -93 -17 -93 -12 1 -36 9 -54 18 -43 23
-215 211 -211 230 2 8 23 22 48 30 25 8 56 23 69 33 27 22 99 25 123 7z m815
-1470 c96 -52 133 -85 164 -143 28 -54 27 -55 -68 -81 -113 -30 -155 1 -192
144 -35 138 -25 147 96 80z"/>
</g>
</svg>
